PathFileType	4	(X/Y/Z)	s03c0103.trc
DataRate	CameraRate	NumFrames	NumMarkers	Units	OrigDataRate	OrigDataStartFrame	OrigNumFrames
200	200	6	50	mm	200	0	2000
Frame#	Time	racr			lacr			c7			jug			rlel			rdr			llel			ldr			s2			lic			ric			lasi			rasi			rpsi			lpsi			rgt			lgt			rth1			rth2			rth3			rth4			rlfc			rmfc			rsh1			rsh2			rsh3			rsh4			rlmal			rcal			rtoe			rmt5			rmt1			lth1			lth2			lth4			lth3			llfc			lmfc			lsh1			lsh2			lsh3			lsh4			llmal			lcal			ltoe			lmt1			lmt5			SBIKE			LBIKE			RBIKE			
		X1	Y1	Z1	X2	Y2	Z2	X3	Y3	Z3	X4	Y4	Z4	X5	Y5	Z5	X6	Y6	Z6	X7	Y7	Z7	X8	Y8	Z8	X9	Y9	Z9	X10	Y10	Z10	X11	Y11	Z11	X12	Y12	Z12	X13	Y13	Z13	X14	Y14	Z14	X15	Y15	Z15	X16	Y16	Z16	X17	Y17	Z17	X18	Y18	Z18	X19	Y19	Z19	X20	Y20	Z20	X21	Y21	Z21	X22	Y22	Z22	X23	Y23	Z23	X24	Y24	Z24	X25	Y25	Z25	X26	Y26	Z26	X27	Y27	Z27	X28	Y28	Z28	X29	Y29	Z29	X30	Y30	Z30	X31	Y31	Z31	X32	Y32	Z32	X33	Y33	Z33	X34	Y34	Z34	X35	Y35	Z35	X36	Y36	Z36	X37	Y37	Z37	X38	Y38	Z38	X39	Y39	Z39	X40	Y40	Z40	X41	Y41	Z41	X42	Y42	Z42	X43	Y43	Z43	X44	Y44	Z44	X45	Y45	Z45	X46	Y46	Z46	X47	Y47	Z47	X48	Y48	Z48	X49	Y49	Z49	X50	Y50	Z50	
0	0.0000	469.943863	1398.217375	-68.721455	474.344861	1414.247972	-393.905059	406.014640	1485.896785	-230.534230	438.096782	1319.925231	-230.845954	525.976986	1135.448576	8.361398	746.425360	946.349527	-43.499556	556.159480	1157.134013	-454.495722	798.365782	994.321300	-287.949794	-115.394900	1209.105813	-246.700978	76.715891	1204.373477	-419.690202	58.482217	1229.673166	-57.235695	83.699917	1128.785429	-390.012292	67.552108	1168.117839	-97.736859	-82.524298	1257.285584	-203.365453	-73.954935	1253.393442	-284.514941	-11.736228	1154.042035	-39.604015	-0.271125	1099.610411	-441.895263	108.424653	1073.828731	-10.831592	197.316718	1075.684291	-6.595441	273.633926	1035.939110	-2.938864	206.953327	1108.094108	-21.350902	397.585341	976.226172	-18.748049	412.151533	965.619498	-146.277868	329.845305	823.695704	-10.030545	309.169166	740.053869	-31.789810	245.935785	678.007903	-41.191829	334.199858	729.912760	-58.603828	177.567035	565.408525	-72.692256	109.741725	521.413396	-115.861981	419.171325	517.806322	-121.838781	301.768899	499.923129	-50.715734	325.816746	515.258872	-164.402148	64.243488	952.301086	-466.441609	121.156357	886.765990	-470.501405	153.880635	903.235869	-466.413041	139.475174	799.139193	-459.304187	213.293261	692.531759	-443.831656	225.299700	683.387970	-321.368837	137.683806	535.804193	-461.199461	134.687581	453.858116	-442.454942	85.739605	375.865492	-429.706320	165.152472	445.788174	-418.598153	40.815579	257.275299	-403.998701	-23.818926	212.789217	-352.807880	284.139093	190.546702	-362.643436	193.021786	193.057758	-317.579982	161.818116	172.005929	-430.894415	-218.375121	943.490259	-234.261079	-11.700080	80.182345	-434.895210	-11.764723	80.657726	-34.761850	
1	0.0050	469.955696	1398.190793	-68.717521	474.338942	1414.211174	-393.896034	406.015549	1485.844789	-230.516993	438.058172	1319.905979	-230.791960	525.974824	1135.441477	8.342331	746.412016	946.324504	-43.532314	556.150004	1157.120237	-454.509709	798.263743	994.355520	-287.779947	-115.361506	1209.120215	-246.701220	76.729013	1204.394915	-419.729400	58.483022	1229.628190	-57.242903	83.699917	1128.785429	-390.012292	67.618589	1168.119767	-97.855189	-82.483515	1257.269305	-203.404227	-73.931064	1253.406496	-284.499564	-11.736345	1154.045154	-39.627731	-0.272195	1099.601504	-441.911175	108.424846	1073.823174	-10.823818	197.312207	1075.688964	-6.590733	273.622499	1035.942864	-2.959297	206.977957	1108.090196	-21.368109	397.607706	976.210788	-18.748422	412.155399	965.618336	-146.269948	329.857188	823.702388	-10.042802	309.181794	740.085145	-31.786230	245.961416	678.006403	-41.196483	334.225228	729.918434	-58.620588	177.569205	565.430829	-72.705188	109.748879	521.432417	-115.873104	419.170572	517.802890	-121.848848	301.756762	499.941529	-50.732425	325.843017	515.298863	-164.433169	64.247281	952.302374	-466.449089	121.158488	886.754327	-470.518440	153.945885	902.879041	-465.585218	139.466956	799.134522	-459.316642	213.296451	692.548008	-443.854438	225.330922	683.385876	-321.379639	137.666620	535.817001	-461.217138	134.686666	453.860106	-442.458210	85.740061	375.870762	-429.686984	165.147194	445.799303	-418.603502	40.810309	257.282321	-404.002433	-23.819888	212.798245	-352.806499	284.115506	190.571154	-362.625948	193.022871	193.059278	-317.578788	161.825804	172.010225	-430.889214	-218.377128	943.487484	-234.264937	-11.683696	80.142042	-434.950355	-11.747486	80.652342	-34.766612	
2	0.0100	469.961601	1398.176105	-68.722898	474.328168	1414.197477	-393.882991	406.045910	1485.828959	-230.528154	438.038671	1319.903715	-230.768029	525.973206	1135.440420	8.331487	746.422543	946.334377	-43.526071	556.135978	1157.128454	-454.504475	798.251174	994.371918	-287.840294	-115.361506	1209.120215	-246.701220	76.701604	1204.390587	-419.720374	58.483700	1229.631441	-57.232483	83.688803	1128.799798	-390.017064	67.616983	1168.135915	-97.817730	-82.477381	1257.281227	-203.409713	-73.918577	1253.404957	-284.509557	-11.727743	1154.046568	-39.618145	-0.260822	1099.600113	-441.901284	108.424618	1073.817065	-10.808033	197.318483	1075.681855	-6.594684	273.630481	1035.945134	-2.949510	206.978891	1108.105692	-21.369111	397.616997	976.224772	-18.747592	412.155399	965.618336	-146.269948	329.867351	823.721507	-10.040749	309.194578	740.113048	-31.793165	245.959569	678.012363	-41.191205	334.223858	729.933781	-58.592309	177.575392	565.446465	-72.703758	109.744715	521.436660	-115.860624	419.181680	517.799992	-121.844588	301.773557	499.944372	-50.731802	325.858041	515.294830	-164.417449	64.236336	952.299841	-466.453128	121.156371	886.749119	-470.537600	153.955494	902.885831	-465.599657	139.469523	799.138008	-459.323999	213.280939	692.552164	-443.870182	225.328465	683.365611	-321.388092	137.660632	535.804161	-461.212075	134.680378	453.871502	-442.460526	85.738015	375.873674	-429.681178	165.124551	445.794776	-418.596740	40.810234	257.289836	-403.993179	-23.823813	212.795557	-352.810910	284.136294	190.560153	-362.632112	193.022871	193.059278	-317.578788	161.825852	172.010180	-430.889062	-218.370152	943.495070	-234.262604	-11.676101	80.141740	-434.939564	-11.753709	80.647676	-34.757910	
3	0.0150	469.954300	1398.163577	-68.716754	474.704653	1413.630746	-391.921534	406.040848	1485.813752	-230.521194	438.038342	1319.918440	-230.774162	525.976819	1135.439783	8.327959	746.425694	946.297746	-43.445267	556.123323	1157.120503	-454.523161	797.686336	994.362226	-287.509854	-115.345802	1209.111045	-246.703220	76.053394	1204.884352	-420.707789	58.792683	1229.583728	-57.213941	84.073866	1128.153003	-389.023457	67.616032	1168.131042	-97.816391	-82.431410	1257.108691	-203.153661	-73.914436	1253.857009	-283.700736	-11.784858	1153.934781	-39.614203	-0.485742	1099.651459	-442.186706	108.426706	1073.769255	-10.802444	197.324673	1075.697264	-6.590872	273.798657	1035.916964	-2.814286	206.160064	1108.508402	-22.092207	397.621082	976.233908	-18.750128	412.179655	965.627551	-146.261828	329.863939	823.721250	-10.042459	309.188106	740.115292	-31.786862	245.970844	678.025572	-41.179555	335.599817	730.856931	-58.321931	177.514314	565.457711	-72.586525	109.764195	521.445775	-115.865995	419.190237	517.792443	-121.850215	302.099983	499.830218	-50.450677	325.856925	515.296514	-164.420849	64.221146	952.279581	-466.510204	121.672766	885.917092	-468.835975	154.403857	902.369120	-464.570704	139.467869	799.136096	-459.326617	214.751717	691.798622	-442.366560	225.331875	683.397030	-321.389991	138.272675	534.963308	-459.761888	134.261723	450.994309	-438.786575	85.722347	375.879612	-429.691165	165.221072	444.415163	-416.148458	40.612009	257.390973	-404.412146	-23.815879	212.783672	-352.808645	284.118767	190.564040	-362.630611	193.008646	193.059539	-317.549777	162.509985	170.379660	-428.700657	-218.443912	943.517156	-234.699313	-11.680691	80.156700	-434.947973	-11.747327	80.647639	-34.771101	
4	0.0200	470.148548	1398.139412	-68.732474	474.520762	1414.067668	-393.149849	406.138760	1485.836723	-231.159210	438.037467	1319.858261	-230.790337	524.963859	1135.748874	7.342950	746.626377	946.537503	-43.608158	555.583612	1157.653251	-455.587021	797.531723	994.375634	-287.479661	-115.387478	1209.087860	-246.702063	77.126958	1205.703956	-422.561746	58.795620	1229.618941	-57.304835	83.883032	1128.777882	-389.779407	67.624034	1168.172096	-97.827636	-82.497060	1257.329456	-203.391832	-74.030558	1253.952055	-283.542618	-11.751238	1153.985424	-39.567158	-0.512470	1099.281275	-441.949266	108.441453	1073.812395	-10.795837	197.378270	1075.715213	-6.623173	273.904987	1035.904766	-2.829455	206.255353	1108.522622	-22.100559	397.696831	976.302131	-18.817765	412.201510	965.629065	-146.255174	329.947333	823.754400	-10.033117	308.462438	740.476439	-32.550906	246.013004	678.012984	-41.156925	335.065393	731.207411	-59.059432	177.568839	565.473411	-72.592989	109.776810	521.497545	-115.798609	419.211878	517.785310	-121.873755	302.158555	499.851039	-50.433238	325.386809	515.618434	-165.478113	64.231300	952.198953	-466.559499	121.396604	886.509071	-470.241317	154.094651	902.988210	-466.056693	139.015248	799.768306	-460.508945	213.884282	692.111281	-443.651821	224.857234	683.697974	-322.017262	137.674139	535.776331	-461.376111	134.324981	453.010207	-442.295774	85.246553	376.722598	-430.792476	165.131858	445.301392	-417.636056	40.694883	257.606094	-404.773296	-23.731691	212.825065	-352.905795	283.725289	190.840257	-363.624583	193.018762	193.231206	-317.530562	161.801292	171.941316	-430.913903	-218.428897	943.495748	-234.804116	-11.905230	80.964113	-435.541514	-11.719745	80.668101	-34.826581	
5	0.0250	470.130692	1398.125101	-68.769306	474.445520	1414.051132	-393.288880	406.151951	1485.841586	-231.178295	438.009293	1319.921251	-230.773773	524.962478	1135.752117	7.335910	746.433085	946.270589	-43.444678	555.462982	1157.690510	-455.813377	797.616586	994.382855	-287.534661	-115.371725	1209.096964	-246.692601	77.297678	1205.888587	-423.128831	58.809038	1229.620984	-57.342116	83.780698	1128.679800	-389.754435	67.624730	1168.175629	-97.828618	-82.481162	1257.323079	-203.395732	-74.041140	1253.946173	-283.545752	-11.738058	1153.982991	-39.582390	-0.439393	1099.642567	-442.085566	108.434091	1073.817045	-10.777944	197.371361	1075.734759	-6.604672	273.913105	1035.910921	-2.855414	206.283273	1108.519749	-22.125797	397.697492	976.327209	-18.818731	412.209983	965.634212	-146.268990	329.948451	823.773880	-10.031831	308.420730	740.492789	-32.625829	246.004166	677.968893	-41.160014	335.057888	731.220255	-59.113421	177.578268	565.462506	-72.598428	109.736578	521.507903	-115.817591	419.231609	517.777592	-121.885613	302.175063	499.848411	-50.437774	325.383164	515.618588	-165.498527	64.212018	952.292555	-466.513743	121.282083	886.523061	-470.058844	153.983583	902.991596	-465.806249	138.997322	799.769820	-460.485965	212.954538	692.557170	-443.960475	224.829356	683.692313	-322.080922	137.639565	535.807235	-461.241864	134.333228	453.018835	-442.346223	85.229076	376.675817	-430.726414	165.017327	445.778245	-418.521517	40.239770	258.882903	-406.193072	-23.811197	212.822364	-352.815439	283.669666	191.094291	-363.307437	193.009360	193.144994	-317.579814	161.823132	172.014273	-430.894792	-218.458793	943.516528	-234.701632	-11.988981	80.745987	-435.641295	-11.770404	80.684545	-34.837525	
